<svg width="52" height="52" viewBox="0 0 52 52" fill="none" xmlns="http://www.w3.org/2000/svg">
<g clip-path="url(#clip0_6032_50060)">
<path d="M34.5866 50.4243L43.4896 41.5213H37.423C35.8472 41.5213 34.5078 42.7819 34.5078 44.4365V50.4243H34.5866Z" stroke="#FC9C03" stroke-width="1.5" stroke-miterlimit="10" stroke-linecap="round" stroke-linejoin="round"/>
<path d="M7.17188 27.0242V47.2727C7.17188 49.0061 8.59006 50.4242 10.3234 50.4242H34.4325" stroke="#FC9C03" stroke-width="1.5" stroke-miterlimit="10" stroke-linecap="round" stroke-linejoin="round"/>
<path d="M43.5719 7.0909V4.72726C43.5719 2.99393 42.1537 1.57574 40.4204 1.57574H10.3234C8.59006 1.57574 7.17188 2.99393 7.17188 4.72726V18.0424" stroke="#FC9C03" stroke-width="1.5" stroke-miterlimit="10" stroke-linecap="round" stroke-linejoin="round"/>
<path d="M43.5703 41.5212V21.5879" stroke="#FC9C03" stroke-width="1.5" stroke-miterlimit="10" stroke-linecap="round" stroke-linejoin="round"/>
<path d="M17.4146 33.4061L13.6328 36.0061L18.0449 38.3697L17.4146 33.4061Z" stroke="#FC9C03" stroke-width="1.5" stroke-miterlimit="10" stroke-linecap="round" stroke-linejoin="round"/>
<path d="M13.6287 36.0061L17.4105 33.4061L5.82869 16.5455C4.09536 16.703 2.83475 17.5697 2.04688 19.1455L13.6287 36.0061Z" stroke="#FC9C03" stroke-width="1.5" stroke-miterlimit="10" stroke-linecap="round" stroke-linejoin="round"/>
<path d="M7.40654 18.8303L3.62472 21.4303L2.28533 22.297C1.65503 22.6909 1.49745 23.5576 1.97018 24.1091L3.93987 27.0243" stroke="#FC9C03" stroke-width="1.5" stroke-miterlimit="10" stroke-linecap="round" stroke-linejoin="round"/>
<path d="M49.7573 16.8959C51.2572 13.2773 49.5397 9.12796 45.9211 7.62805C42.3026 6.12815 38.1532 7.84566 36.6533 11.4642C35.1534 15.0828 36.8709 19.2321 40.4895 20.7321C44.1081 22.232 48.2574 20.5144 49.7573 16.8959Z" stroke="#FC9C03" stroke-width="1.5" stroke-miterlimit="10" stroke-linecap="round" stroke-linejoin="round"/>
<path d="M41.0469 11.897C41.0469 10.5576 42.2287 9.53333 43.5681 9.84848C44.356 10.0061 44.9863 10.6364 45.1438 11.4242C45.3802 12.5273 44.7499 13.4727 43.8832 13.8667C43.4105 14.0242 43.0954 14.497 43.0954 14.9697V15.7576" stroke="#FC9C03" stroke-width="1.5" stroke-miterlimit="10" stroke-linecap="round" stroke-linejoin="round"/>
<path d="M43.1719 18.0425V18.5941" stroke="#FC9C03" stroke-width="1.5" stroke-miterlimit="10" stroke-linecap="round" stroke-linejoin="round"/>
<path d="M20.4844 22.8484H30.3329" stroke="#FC9C03" stroke-width="1.5" stroke-miterlimit="10" stroke-linecap="round" stroke-linejoin="round"/>
<path d="M32.2227 13C32.2227 8.9818 28.6773 5.7515 24.5803 6.14544C21.5076 6.46059 19.0651 8.90302 18.5924 11.897C18.2773 14.1818 19.0651 16.3091 20.4833 17.7273C21.8227 19.0667 22.6106 20.8 22.6106 22.6909V22.8485H28.2045V22.7697C28.2045 20.8788 28.9924 19.1454 30.3318 17.806C31.5136 16.5454 32.2227 14.8909 32.2227 13Z" stroke="#FC9C03" stroke-width="1.5" stroke-miterlimit="10" stroke-linecap="round" stroke-linejoin="round"/>
<path d="M25.3672 22.6122V16.2304L26.9429 14.6546" stroke="#FC9C03" stroke-width="1.5" stroke-miterlimit="10" stroke-linecap="round" stroke-linejoin="round"/>
<path d="M23.7891 14.6546L25.3648 16.2304" stroke="#FC9C03" stroke-width="1.5" stroke-miterlimit="10" stroke-linecap="round" stroke-linejoin="round"/>
<path d="M18.5156 28.0485H37.4247" stroke="#FC9C03" stroke-width="1.5" stroke-miterlimit="10" stroke-linecap="round" stroke-linejoin="round"/>
<path d="M21.2656 32.4606H37.4171" stroke="#FC9C03" stroke-width="1.5" stroke-miterlimit="10" stroke-linecap="round" stroke-linejoin="round"/>
<path d="M22.0547 36.9515H37.4183" stroke="#FC9C03" stroke-width="1.5" stroke-miterlimit="10" stroke-linecap="round" stroke-linejoin="round"/>
<path d="M13.3906 41.3636H31.0391" stroke="#FC9C03" stroke-width="1.5" stroke-miterlimit="10" stroke-linecap="round" stroke-linejoin="round"/>
<path d="M13.3906 45.8546H29.8573" stroke="#FC9C03" stroke-width="1.5" stroke-miterlimit="10" stroke-linecap="round" stroke-linejoin="round"/>
</g>
<defs>
<clipPath id="clip0_6032_50060">
<rect width="52" height="52" fill="white"/>
</clipPath>
</defs>
</svg>
