<svg width="52" height="52" viewBox="0 0 52 52" fill="none" xmlns="http://www.w3.org/2000/svg">
<path d="M17.937 39.2493C20.6679 39.2493 22.8896 37.0276 22.8896 34.2967C22.8896 31.5658 20.6679 29.344 17.937 29.344C15.2061 29.344 12.9844 31.5658 12.9844 34.2967C12.9844 37.0276 15.2061 39.2493 17.937 39.2493ZM17.937 30.8675C19.8279 30.8675 21.3661 32.4058 21.3661 34.2968C21.3661 36.1876 19.8279 37.7259 17.937 37.7259C16.0461 37.7259 14.5078 36.1877 14.5078 34.2968C14.5078 32.4058 16.0461 30.8675 17.937 30.8675Z" fill="#FC9C03"/>
<path d="M31.8397 7.44872C32.2604 7.44872 32.6015 7.10778 32.6015 6.68701C32.6015 6.26624 32.2604 5.92529 31.8397 5.92529H20.1602C19.7395 5.92529 19.3984 6.26624 19.3984 6.68701C19.3984 7.10778 19.7395 7.44872 20.1602 7.44872H31.8397Z" fill="#FC9C03"/>
<path d="M13.5547 13.3086C13.5547 13.7294 13.8957 14.0703 14.3164 14.0703H37.6756C38.0963 14.0703 38.4373 13.7294 38.4373 13.3086C38.4373 12.8878 38.0963 12.5469 37.6756 12.5469H14.3164C13.8957 12.5469 13.5547 12.8878 13.5547 13.3086Z" fill="#FC9C03"/>
<path d="M14.3164 18.1008H37.6756C38.0963 18.1008 38.4373 17.7599 38.4373 17.3391C38.4373 16.9183 38.0963 16.5774 37.6756 16.5774H14.3164C13.8957 16.5774 13.5547 16.9183 13.5547 17.3391C13.5547 17.7599 13.8957 18.1008 14.3164 18.1008Z" fill="#FC9C03"/>
<path d="M14.3164 22.1313H37.6756C38.0963 22.1313 38.4373 21.7904 38.4373 21.3696C38.4373 20.9489 38.0963 20.6079 37.6756 20.6079H14.3164C13.8957 20.6079 13.5547 20.9489 13.5547 21.3696C13.5547 21.7904 13.8957 22.1313 14.3164 22.1313Z" fill="#FC9C03"/>
<path d="M37.6777 29.2446H31.2539C30.8332 29.2446 30.4922 29.5855 30.4922 30.0063C30.4922 30.4271 30.8332 30.768 31.2539 30.768H37.6777C38.0984 30.768 38.4395 30.4271 38.4395 30.0063C38.4395 29.5855 38.0984 29.2446 37.6777 29.2446Z" fill="#FC9C03"/>
<path d="M37.6777 34.7145H31.2539C30.8332 34.7145 30.4922 35.0554 30.4922 35.4762C30.4922 35.897 30.8332 36.2379 31.2539 36.2379H37.6777C38.0984 36.2379 38.4395 35.897 38.4395 35.4762C38.4395 35.0554 38.0984 34.7145 37.6777 34.7145Z" fill="#FC9C03"/>
<path d="M44.8222 31.7701C44.4015 31.7701 44.0604 32.1111 44.0604 32.5319V43.8486C44.0604 44.6606 43.3998 45.3212 42.5878 45.3212H23.4479V40.5081C25.1631 38.985 26.2466 36.7655 26.2466 34.2966C26.2466 29.7152 22.5194 25.9879 17.938 25.9879C13.3565 25.9879 9.6293 29.7151 9.6293 34.2966C9.6293 36.7655 10.7129 38.985 12.428 40.5081V45.3212H9.41013C8.59815 45.3212 7.93749 44.6606 7.93749 43.8486V8.45544C7.93749 8.03467 7.59644 7.69373 7.17578 7.69373C6.75511 7.69373 6.41406 8.03467 6.41406 8.45544V43.8486C6.41406 45.5007 7.75803 46.8446 9.41013 46.8446H12.4281V50.8302C12.4281 51.3168 12.7215 51.7447 13.1753 51.9201C13.6271 52.0948 14.1323 51.978 14.4613 51.6162L17.9381 47.7918L21.4148 51.6162C21.7422 51.9764 22.2467 52.0957 22.7008 51.9201C23.1547 51.7446 23.448 51.3168 23.448 50.8302V46.8446H42.5878C44.2399 46.8446 45.5839 45.5007 45.5839 43.8486V32.5319C45.5839 32.1112 45.2428 31.7701 44.8222 31.7701ZM11.1527 34.2966C11.1527 30.5552 14.1965 27.5114 17.938 27.5114C21.6794 27.5114 24.7232 30.5552 24.7232 34.2966C24.7232 38.0226 21.7 41.0694 17.9598 41.0812C17.9525 41.0812 17.9453 41.0816 17.9381 41.0816C17.9308 41.0816 17.9235 41.0812 17.9163 41.0812C14.1777 41.0694 11.1527 38.0244 11.1527 34.2966ZM21.9245 49.9122L18.8026 46.4781C18.3393 45.9688 17.5365 45.9687 17.0733 46.4782L13.9515 49.9122C13.9515 48.2592 13.9515 43.4526 13.9515 41.585C15.1947 42.2626 16.5638 42.6033 17.9274 42.6051C17.931 42.6051 17.9344 42.6054 17.9379 42.6054C17.9414 42.6054 17.9449 42.6051 17.9483 42.6051C19.312 42.6033 20.6866 42.2611 21.9244 41.585C21.9245 43.451 21.9245 48.2593 21.9245 49.9122Z" fill="#FC9C03"/>
<path d="M42.5878 0H9.41013C7.75803 0 6.41406 1.34397 6.41406 2.99607V4.90076C6.41406 5.32153 6.75511 5.66247 7.17578 5.66247C7.59644 5.66247 7.93749 5.32153 7.93749 4.90076V2.99607C7.93749 2.18408 8.59815 1.52343 9.41013 1.52343H42.5878C43.3998 1.52343 44.0604 2.18408 44.0604 2.99607V28.9772C44.0604 29.3979 44.4015 29.7389 44.8222 29.7389C45.2428 29.7389 45.5839 29.3979 45.5839 28.9772V2.99607C45.5839 1.34397 44.2398 0 42.5878 0Z" fill="#FC9C03"/>
</svg>
