<svg width="52" height="52" viewBox="0 0 52 52" fill="none" xmlns="http://www.w3.org/2000/svg">
<g clip-path="url(#clip0_6032_50088)">
<path d="M21.9338 42.1996C23.8342 42.1996 25.3754 40.6588 25.3754 38.758C25.3754 36.8572 23.8346 35.3164 21.9338 35.3164C20.033 35.3164 18.4922 36.8576 18.4922 38.758C18.4947 40.658 20.0338 42.1971 21.9338 42.1996ZM21.9338 36.8017C23.0143 36.8013 23.8905 37.6775 23.8905 38.758C23.8905 39.8385 23.0143 40.7148 21.9338 40.7148C20.8533 40.7148 19.977 39.8389 19.977 38.758C19.9783 37.6779 20.8537 36.8029 21.9338 36.8017Z" fill="#FC9C03"/>
<path d="M16.1562 44.976V49.7442C16.1562 50.1543 16.4922 50.4431 16.9024 50.4431H26.9782C27.1701 50.453 27.3573 50.3838 27.497 50.2517C27.6366 50.1195 27.7161 49.9364 27.7169 49.7442V44.976C27.7149 44.1407 27.3793 43.3407 26.7848 42.7541C26.1902 42.1674 25.3857 41.843 24.5504 41.8521C24.318 41.843 24.0951 41.947 23.9522 42.1314C23.8022 42.3315 23.6224 42.5071 23.419 42.653C22.3074 43.4555 20.7587 43.2251 19.9285 42.1343C19.7864 41.9491 19.5635 41.8442 19.3302 41.8521C18.4942 41.8426 17.6888 42.1666 17.093 42.7532C16.4968 43.3399 16.1596 44.1399 16.1562 44.976ZM17.6411 44.976C17.6432 44.1701 18.2137 43.4778 19.0042 43.3216C19.7578 44.1445 20.8221 44.6134 21.9383 44.6134C23.054 44.6134 24.1183 44.1445 24.8719 43.3216C25.662 43.4778 26.2313 44.1706 26.2321 44.976V48.9582H17.6411V44.976Z" fill="#FC9C03"/>
<path d="M34.0979 42.1996C35.9987 42.1996 37.5395 40.6588 37.5395 38.758C37.5395 36.8572 35.9987 35.3164 34.0979 35.3164C32.197 35.3164 30.6562 36.8576 30.6562 38.758C30.6587 40.658 32.1979 42.1971 34.0979 42.1996ZM34.0979 36.8017C35.1784 36.8013 36.0546 37.6775 36.0546 38.758C36.0546 39.8385 35.1784 40.7148 34.0979 40.7148C33.0174 40.7148 32.1411 39.8389 32.1411 38.758C32.1424 37.6779 33.0178 36.8029 34.0979 36.8017Z" fill="#FC9C03"/>
<path d="M28.344 44.976V49.7442C28.3386 49.9335 28.4124 50.1162 28.5474 50.2488C28.6825 50.3814 28.8669 50.4518 29.0558 50.4431H39.1316C39.5418 50.4431 39.9043 50.1543 39.9043 49.7442V44.976C39.9047 43.228 38.4526 41.8521 36.7046 41.8521C36.4718 41.843 36.2489 41.947 36.1064 42.1314C35.9564 42.3315 35.7762 42.5075 35.5724 42.653C34.4612 43.4555 32.9125 43.2251 32.0827 42.1343C31.9402 41.9491 31.7173 41.8442 31.484 41.8521C30.6513 41.8438 29.8504 42.1699 29.26 42.757C28.6697 43.344 28.3399 44.1436 28.344 44.976ZM29.8289 44.976C29.8235 44.1735 30.3878 43.4795 31.175 43.3216C32.5442 44.8185 34.8221 45.0414 36.4552 43.8379C36.6678 43.685 36.8654 43.5122 37.0448 43.3212C37.8378 43.4762 38.4128 44.1677 38.4199 44.976V48.9582H29.8289V44.976Z" fill="#FC9C03"/>
<path d="M46.2619 42.1996C48.1623 42.1996 49.7031 40.6588 49.7031 38.758C49.7031 36.8572 48.1623 35.3164 46.2615 35.3164C44.3611 35.3164 42.8203 36.8576 42.8203 38.758C42.8224 40.658 44.3619 42.1976 46.2619 42.1996ZM46.2619 36.8017C47.3424 36.8017 48.2183 37.6775 48.2183 38.758C48.2183 39.8385 47.3424 40.7148 46.2619 40.7148C45.181 40.7148 44.3052 39.8385 44.3052 38.758C44.3064 37.6779 45.1818 36.8029 46.2619 36.8017Z" fill="#FC9C03"/>
<path d="M48.8694 41.8521C48.6365 41.843 48.4137 41.947 48.2711 42.1314C48.1212 42.3315 47.9409 42.5071 47.7375 42.653C46.6313 43.4733 45.0694 43.2425 44.2474 42.1372C44.1053 41.9515 43.8828 41.8455 43.6496 41.8521C41.9012 41.8521 40.4375 43.228 40.4375 44.976V49.7442C40.4375 50.1543 40.8112 50.4431 41.2214 50.4431H51.2972C51.4853 50.4514 51.6676 50.3805 51.801 50.2475C51.934 50.1145 52.0052 49.9323 51.9974 49.7442V44.976C52.004 44.1449 51.6767 43.3457 51.0884 42.7586C50.5005 42.1711 49.7009 41.8447 48.8698 41.8521H48.8694ZM49.1718 43.3208C49.9586 43.4791 50.5212 44.1739 50.5133 44.976V48.9582H41.9224V44.976C41.9327 44.1664 42.5098 43.4754 43.3049 43.3208C44.0589 44.1424 45.1233 44.6101 46.2386 44.6101C47.3539 44.6101 48.4182 44.1424 49.1722 43.3208H49.1718Z" fill="#FC9C03"/>
<path d="M9.20505 11.3917C11.521 11.3884 13.3961 9.50911 13.3945 7.19316V5.81022C13.3945 3.49634 11.5189 1.62079 9.20505 1.62079C6.89117 1.62079 5.01563 3.49634 5.01563 5.81022V7.19316C5.01356 9.50911 6.8891 11.3884 9.20505 11.3917ZM6.50049 5.81022C6.50049 4.31665 7.71108 3.10565 9.20505 3.10565C10.6986 3.10565 11.9096 4.31665 11.9096 5.81022V7.19316C11.9096 8.68672 10.6986 9.89772 9.20505 9.89772C7.71108 9.89772 6.50049 8.68672 6.50049 7.19316V5.81022Z" fill="#FC9C03"/>
<path d="M0.0302845 26.7416C0.0269701 27.436 0.303724 28.1026 0.797573 28.5906C1.29142 29.0791 1.96093 29.348 2.65531 29.3368H2.65655L2.68596 29.3633C3.14045 29.3621 3.58666 29.2411 3.979 29.0116L4.45089 44.8972C4.49025 46.0361 5.21404 47.0383 6.28294 47.4335C7.35184 47.8292 8.55373 47.5396 9.32516 46.7006C10.0958 47.5412 11.2985 47.8321 12.3678 47.4364C13.4375 47.0412 14.1613 46.0382 14.1998 44.8984L14.6713 29.0468C15.062 29.2722 15.5057 29.3911 15.9573 29.3907C16.6583 29.389 17.3299 29.1089 17.8242 28.6114C18.318 28.1142 18.5939 27.4409 18.591 26.7399V16.152C18.8243 13.788 17.1016 11.6805 14.7384 11.4385C14.5963 11.4228 14.4534 11.4141 14.3105 11.4124H12.49C12.3011 11.4141 12.1192 11.4874 11.9821 11.6175L9.32516 14.1128L6.7714 11.6258C6.63302 11.4903 6.44742 11.4137 6.25394 11.4124H4.32204C3.17277 11.412 2.07031 11.8698 1.25952 12.6843C0.448316 13.4984 -0.00493116 14.6025 4.04723e-05 15.7518C4.04723e-05 15.8844 0.0302845 16.0199 0.0302845 16.152V26.7416ZM11.4116 46.1264C11.0623 46.1252 10.728 45.9847 10.4831 45.7361C10.2379 45.4876 10.102 45.1511 10.1061 44.8019V29.1868C10.1061 28.7767 9.77344 28.4444 9.36369 28.4444C8.95353 28.4444 8.62126 28.7767 8.62126 29.1868V44.8019C8.61256 45.5269 8.02839 46.1136 7.30336 46.1247C6.57834 46.1363 5.97594 45.5688 5.94445 44.8446L5.39219 26.5792H13.2581L12.7258 44.84C12.7075 45.5534 12.1254 46.1235 11.4116 46.1264ZM2.30771 13.7354C2.8405 13.1985 3.56594 12.8969 4.32204 12.8973H5.95232L8.79817 15.6698C8.80314 15.6743 8.80811 15.6806 8.81308 15.6847C8.82303 15.6942 8.83338 15.7042 8.84374 15.7129C8.85244 15.7203 8.86156 15.7278 8.87067 15.7348C8.87979 15.7415 8.8918 15.7506 8.90299 15.758C8.91417 15.7651 8.92246 15.7709 8.9324 15.7767C8.94235 15.7829 8.95395 15.7899 8.96555 15.7957C8.97715 15.8015 8.98668 15.8065 8.99745 15.8119C9.0078 15.8177 9.01858 15.8218 9.02976 15.8264C9.04136 15.831 9.05296 15.8359 9.06456 15.8401C9.07617 15.8442 9.08569 15.8475 9.09729 15.8504C9.10889 15.8537 9.12132 15.8575 9.13334 15.8608C9.14535 15.8637 9.1553 15.8658 9.16648 15.8682C9.17767 15.8703 9.19093 15.8728 9.20336 15.8749C9.21579 15.8765 9.22614 15.8778 9.23733 15.879C9.24852 15.8803 9.26177 15.8815 9.27379 15.8819C9.2858 15.8827 9.29699 15.8832 9.30859 15.8832H9.34422C9.35623 15.8832 9.36825 15.8819 9.38026 15.8811C9.39228 15.8798 9.40346 15.8786 9.41465 15.8769C9.42625 15.8753 9.43909 15.8736 9.45152 15.8711C9.46354 15.8691 9.47348 15.867 9.48467 15.8641C9.49585 15.8616 9.50911 15.8583 9.52113 15.855C9.53314 15.8513 9.54308 15.8484 9.55386 15.8442C9.56463 15.8401 9.57747 15.8359 9.58907 15.8314C9.60067 15.8264 9.6102 15.8223 9.62139 15.8177C9.63257 15.8127 9.64376 15.8069 9.65495 15.8015C9.66572 15.7957 9.67607 15.7899 9.68685 15.7841C9.6972 15.7779 9.70798 15.7717 9.71833 15.7647C9.72911 15.758 9.73988 15.751 9.74941 15.7435C9.75894 15.7361 9.76929 15.729 9.77882 15.7212C9.78835 15.7133 9.79829 15.705 9.80741 15.6967C9.81279 15.6922 9.81859 15.6839 9.82398 15.6789L12.7842 12.8973H14.31C15.1639 12.9105 15.9697 13.2954 16.517 13.9513C16.9918 14.5379 17.2114 15.2907 17.1269 16.0406C17.1244 16.0654 17.1058 16.0915 17.1058 16.1164V26.7399C17.1058 27.3842 16.5837 27.9066 15.9391 27.9066C15.2948 27.9066 14.7724 27.3842 14.7724 26.7399V24.4277L14.7832 24.0582C14.7844 24.0064 14.7724 23.9558 14.7724 23.9065V19.6293C14.7724 19.2191 14.4401 18.8868 14.03 18.8868C13.6202 18.8868 13.2875 19.2191 13.2875 19.6293V24.4049L13.3021 25.0943H5.34827L5.33004 24.0039C5.3288 23.9691 5.33336 23.9451 5.33336 23.9115V19.6293C5.33336 19.2191 5.00067 18.8868 4.59093 18.8868C4.18077 18.8868 3.8485 19.2191 3.8485 19.6293V26.6877C3.84725 26.9985 3.72255 27.2959 3.50172 27.5143C3.28049 27.7326 2.98178 27.8544 2.67105 27.8519H2.65531C2.35328 27.8627 2.06037 27.7488 1.8441 27.5375C1.62908 27.3291 1.51017 27.0407 1.51514 26.7412V16.1164C1.51514 16.0911 1.50189 16.0663 1.4994 16.0414C1.48987 15.9457 1.4791 15.8475 1.4791 15.7518C1.47454 14.9961 1.77326 14.2699 2.30771 13.7354Z" fill="#FC9C03"/>
<path d="M20.1775 8.33651H21.3466V23.5033C21.3483 24.2942 21.6648 25.0515 22.2258 25.6088C22.7872 26.166 23.5466 26.4767 24.3375 26.473H33.6779L28.5286 31.0714C28.2982 31.2773 28.2187 31.6042 28.328 31.8929C28.4374 32.1821 28.7138 32.3739 29.0228 32.3756C29.2047 32.3764 29.3804 32.3101 29.5163 32.1891L35.2067 27.1202L40.8971 32.19C41.2029 32.4626 41.6723 32.4357 41.9453 32.1295C42.2179 31.8196 42.191 31.3481 41.8848 31.0709L36.7355 26.473H46.0759C46.8627 26.4755 47.6175 26.1627 48.1723 25.6051C48.727 25.047 49.0353 24.2901 49.0287 23.5033V8.33651H50.2736C50.6929 8.32947 51.0322 7.99347 51.0438 7.57419V2.47703C51.0281 2.06687 50.6838 1.74661 50.2736 1.7607H20.1775C19.9836 1.7549 19.7955 1.82782 19.6563 1.96247C19.5171 2.09753 19.4379 2.28314 19.4375 2.47703V7.57419C19.4346 7.98767 19.764 8.32698 20.1775 8.33651ZM47.5438 23.5033C47.5513 23.8965 47.3992 24.276 47.1229 24.5552C46.8465 24.8349 46.4691 24.9911 46.0759 24.9882H24.3375C23.9406 24.9927 23.5582 24.8382 23.2752 24.5594C22.9926 24.2805 22.8327 23.9006 22.8315 23.5033V8.33651H47.5438V23.5033ZM20.9224 3.24556H49.559V6.85165H20.9224V3.24556Z" fill="#FC9C03"/>
<path d="M26.2268 14.17H39.9087C40.3185 14.17 40.6512 13.8377 40.6512 13.4275C40.6512 13.0178 40.3185 12.6851 39.9087 12.6851H26.2268C25.8166 12.6851 25.4844 13.0178 25.4844 13.4275C25.4844 13.8377 25.8166 14.17 26.2268 14.17Z" fill="#FC9C03"/>
<path d="M26.2268 17.1397H44.2572C44.667 17.1397 44.9997 16.8074 44.9997 16.3973C44.9997 15.9875 44.667 15.6548 44.2572 15.6548H26.2268C25.8166 15.6548 25.4844 15.9875 25.4844 16.3973C25.4844 16.8074 25.8166 17.1397 26.2268 17.1397Z" fill="#FC9C03"/>
<path d="M26.2268 20.0034H44.2572C44.667 20.0034 44.9997 19.6711 44.9997 19.261C44.9997 18.8512 44.667 18.5186 44.2572 18.5186H26.2268C25.8166 18.5186 25.4844 18.8512 25.4844 19.261C25.4844 19.6711 25.8166 20.0034 26.2268 20.0034Z" fill="#FC9C03"/>
</g>
<defs>
<clipPath id="clip0_6032_50088">
<rect width="52" height="52" fill="white"/>
</clipPath>
</defs>
</svg>
