<svg width="52" height="52" viewBox="0 0 52 52" fill="none" xmlns="http://www.w3.org/2000/svg">
<g clip-path="url(#clip0_6032_50036)">
<path fill-rule="evenodd" clip-rule="evenodd" d="M22.8484 41.19V34.812C22.8484 34.3593 22.4801 33.991 22.0274 33.991C21.5741 33.991 21.2063 34.3593 21.2063 34.812V41.19C21.2063 41.6432 21.5741 42.011 22.0274 42.011C22.48 42.011 22.8484 41.6432 22.8484 41.19ZM16.8438 34.8121V41.19C16.8438 41.6433 17.2116 42.0111 17.6648 42.0111C18.1179 42.0111 18.4858 41.6432 18.4858 41.19V34.8121C18.4858 34.3594 18.1179 33.9911 17.6648 33.9911C17.2116 33.991 16.8438 34.3593 16.8438 34.8121Z" fill="#FC9C03"/>
<path fill-rule="evenodd" clip-rule="evenodd" d="M14.4694 42.0112H25.2094C25.6626 42.0112 26.0304 41.6433 26.0304 41.1902C26.0304 40.7369 25.6626 40.3691 25.2094 40.3691H14.4694C14.0163 40.3691 13.6484 40.737 13.6484 41.1902C13.6484 41.6433 14.0162 42.0112 14.4694 42.0112Z" fill="#FC9C03"/>
<path fill-rule="evenodd" clip-rule="evenodd" d="M33.8245 33.991H2.55996C2.0963 33.991 1.72032 33.6156 1.72032 33.1519V8.01075C1.72032 7.54709 2.09639 7.17162 2.55996 7.17162H10.6407C11.0939 7.17162 11.4618 6.80379 11.4618 6.35061C11.4618 5.89743 11.0939 5.5296 10.6407 5.5296C10.6407 5.5296 5.3411 5.5296 2.55996 5.5296C1.18935 5.52952 0.078125 6.64014 0.078125 8.01075V33.1519C0.078125 34.5225 1.18926 35.6331 2.55987 35.6331H33.8244C34.2777 35.6331 34.6454 35.2653 34.6454 34.8121C34.6455 34.3594 34.2777 33.991 33.8245 33.991ZM37.9643 17.8481V25.375C37.9643 25.8277 38.3321 26.196 38.7853 26.196C39.2385 26.196 39.6063 25.8277 39.6063 25.375V17.8481C39.6063 17.3948 39.2384 17.0271 38.7853 17.0271C38.3321 17.027 37.9643 17.3948 37.9643 17.8481Z" fill="#FC9C03"/>
<path fill-rule="evenodd" clip-rule="evenodd" d="M33.6723 27.3936H0.899135C0.445871 27.3936 0.078125 27.7609 0.078125 28.2146V33.1519C0.078125 33.8098 0.339746 34.4409 0.80503 34.9067C1.27031 35.372 1.9014 35.6331 2.55987 35.6331H33.8244C34.2777 35.6331 34.6455 35.2653 34.6455 34.8121C34.6455 34.3594 34.2776 33.9911 33.8244 33.9911H2.55987C2.33706 33.9911 2.12361 33.903 1.96597 33.7453C1.80884 33.5882 1.72023 33.3748 1.72023 33.152V29.0358H33.6723C34.1256 29.0358 34.4933 28.668 34.4933 28.2148C34.4933 27.7616 34.1255 27.3936 33.6723 27.3936Z" fill="#FC9C03"/>
<path fill-rule="evenodd" clip-rule="evenodd" d="M38.7891 24.554C35.0117 24.554 31.9453 27.6203 31.9453 31.3977C31.9453 35.1751 35.0117 38.2415 38.7891 38.2415C42.5665 38.2415 45.6334 35.1751 45.6334 31.3977C45.6334 27.6203 42.5664 24.554 38.7891 24.554ZM38.7891 26.1961C41.6601 26.1961 43.9913 28.5268 43.9913 31.3977C43.9913 34.2687 41.6601 36.5994 38.7891 36.5994C35.9181 36.5994 33.5874 34.2687 33.5874 31.3977C33.5874 28.5268 35.9181 26.1961 38.7891 26.1961Z" fill="#FC9C03"/>
<path fill-rule="evenodd" clip-rule="evenodd" d="M28.1225 52C33.0784 52 44.4982 52 49.4545 51.9836C50.2992 51.9836 51.0868 51.5478 51.5384 50.8308C51.9894 50.1132 52.0403 49.2145 51.673 48.4508C51.6725 48.4497 51.6725 48.4492 51.6719 48.4481C49.3533 43.6674 44.4521 40.3689 38.7869 40.3689C33.1227 40.3689 28.2227 43.6662 25.8882 48.4382C25.887 48.4398 25.8865 48.4414 25.8854 48.4431C25.5159 49.2121 25.5674 50.1175 26.0217 50.8395C26.4761 51.5621 27.2692 52 28.1225 52ZM28.1225 50.3579C28.1225 50.3579 28.1225 50.3579 28.122 50.3579C27.8335 50.3579 27.5654 50.2095 27.4115 49.9654C27.2583 49.7218 27.2407 49.4164 27.365 49.1564C29.433 44.9318 33.7714 42.0111 38.7869 42.0111C43.8019 42.0111 48.1403 44.9313 50.1935 49.163C50.3156 49.4175 50.2986 49.7175 50.1481 49.9567C49.9976 50.1959 49.7344 50.3416 49.4519 50.3416C49.4508 50.3416 49.4497 50.3416 49.4491 50.3416C44.4944 50.3579 33.0774 50.3579 28.1225 50.3579Z" fill="#FC9C03"/>
<path fill-rule="evenodd" clip-rule="evenodd" d="M21.6264 9.20403V2.48123C21.6264 2.01758 22.0025 1.64211 22.466 1.64211H40.7164C40.9386 1.64211 41.152 1.7308 41.3098 1.88784C41.4674 2.04548 41.5555 2.25894 41.5555 2.48123V13.1866C41.5555 13.4089 41.4674 13.6223 41.3098 13.78C41.1521 13.9372 40.9387 14.0258 40.7164 14.0258H28.6108C28.1582 14.0258 27.7898 14.3936 27.7898 14.8468C27.7898 15.3 28.1582 15.6678 28.6108 15.6678H40.7164C41.3743 15.6678 42.0054 15.4062 42.4707 14.9409C42.936 14.4756 43.1976 13.8445 43.1976 13.1866C43.1976 10.4875 43.1976 5.18021 43.1976 2.48115C43.1976 1.82319 42.936 1.1921 42.4707 0.726819C42.0055 0.261621 41.3744 0 40.7165 0C36.6977 0 26.4844 0 22.4661 0C21.0955 0 19.9844 1.11114 19.9844 2.48123V9.20403C19.9844 9.65721 20.3527 10.025 20.8054 10.025C21.2586 10.025 21.6264 9.65721 21.6264 9.20403Z" fill="#FC9C03"/>
<path fill-rule="evenodd" clip-rule="evenodd" d="M36.8928 3.82056H29.8366C29.3834 3.82056 29.0156 4.18839 29.0156 4.64157C29.0156 5.09474 29.3835 5.46258 29.8366 5.46258H36.8928C37.3454 5.46258 37.7138 5.09474 37.7138 4.64157C37.7138 4.18839 37.3454 3.82056 36.8928 3.82056Z" fill="#FC9C03"/>
<path fill-rule="evenodd" clip-rule="evenodd" d="M36.8953 7.0127H31.196C30.7427 7.0127 30.375 7.38053 30.375 7.8337C30.375 8.28688 30.7428 8.65471 31.196 8.65471H36.8952C37.3478 8.65471 37.7162 8.28688 37.7162 7.8337C37.7163 7.38053 37.3479 7.0127 36.8953 7.0127Z" fill="#FC9C03"/>
<path fill-rule="evenodd" clip-rule="evenodd" d="M36.8958 10.2051H32.7741C32.3209 10.2051 31.9531 10.5729 31.9531 11.0261C31.9531 11.4794 32.321 11.8471 32.7741 11.8471H36.8958C37.3485 11.8471 37.7168 11.4793 37.7168 11.0261C37.7168 10.5729 37.3485 10.2051 36.8958 10.2051Z" fill="#FC9C03"/>
<path fill-rule="evenodd" clip-rule="evenodd" d="M14.1222 2.58301C11.7221 2.58301 9.77344 4.53164 9.77344 6.93182C9.77344 9.332 11.7221 11.2812 14.1222 11.2812C16.523 11.2812 18.4717 9.33208 18.4717 6.93182C18.4717 4.53155 16.523 2.58301 14.1222 2.58301ZM14.1222 4.22511C15.6166 4.22511 16.8296 5.43808 16.8296 6.93182C16.8296 8.42616 15.6166 9.63912 14.1222 9.63912C12.6285 9.63912 11.4155 8.42616 11.4155 6.93182C11.4155 5.43808 12.6285 4.22511 14.1222 4.22511Z" fill="#FC9C03"/>
<path fill-rule="evenodd" clip-rule="evenodd" d="M20.3072 12.7083H11.609C9.24661 12.7083 7.22954 14.4129 6.83544 16.7425C6.51414 18.6446 6.12991 20.9167 5.89397 22.3092C5.79986 22.8686 5.95639 23.4417 6.32259 23.8747C6.68879 24.3082 7.22791 24.5584 7.79503 24.5584H16.7998C17.8644 24.5584 18.7276 23.6952 18.7276 22.6305V18.1739H20.7884C21.8897 18.1739 22.9488 17.748 23.7437 16.9855C24.4044 16.3511 25.2802 15.5115 26.0071 14.8141C26.5298 14.3121 26.8319 13.6235 26.8473 12.8989C26.8621 12.1818 26.5944 11.4877 26.1024 10.9666C26.0975 10.9611 26.0766 10.9392 26.0712 10.9343C25.5709 10.4209 24.8889 10.1248 24.1719 10.11C23.4471 10.0947 22.7466 10.3683 22.2232 10.8698L20.3072 12.7083ZM20.6373 14.3504C20.8491 14.3504 21.0528 14.2684 21.2054 14.1216C21.2054 14.1216 22.3686 13.0061 23.3599 12.0547C23.5684 11.8549 23.8481 11.7455 24.1377 11.7515C24.4234 11.7575 24.696 11.8757 24.8952 12.0804C24.8975 12.0826 24.9062 12.0914 24.9084 12.0936C25.1043 12.3016 25.211 12.5785 25.205 12.8648C25.199 13.1538 25.0786 13.4285 24.8701 13.6289C24.1432 14.3263 23.2679 15.1659 22.6067 15.8004C22.1174 16.2694 21.466 16.5317 20.7883 16.5317H17.9064C17.4533 16.5317 17.0854 16.899 17.0854 17.3527V22.6304C17.0854 22.7881 16.9573 22.9162 16.7997 22.9162H7.79494C7.71123 22.9162 7.63129 22.8789 7.57651 22.8149C7.52233 22.7509 7.49932 22.6655 7.51297 22.5829C7.74892 21.1904 8.13315 18.9182 8.45445 17.0161C8.71504 15.4769 10.0479 14.3504 11.6089 14.3504H20.6373Z" fill="#FC9C03"/>
<path fill-rule="evenodd" clip-rule="evenodd" d="M10.9666 23.8741L11.838 18.7217C11.9136 18.2745 11.612 17.8508 11.1653 17.7753C10.7187 17.6992 10.2944 18.0008 10.2189 18.4475L9.34753 23.6004C9.27198 24.0471 9.57361 24.4713 10.0203 24.5468C10.4669 24.6223 10.8912 24.3212 10.9666 23.8741Z" fill="#FC9C03"/>
<path fill-rule="evenodd" clip-rule="evenodd" d="M26.3578 11.9031L28.0771 7.21485C28.2332 6.78898 28.0142 6.31717 27.5889 6.16116C27.1631 6.00515 26.6913 6.2241 26.5352 6.64945L24.8159 11.3377C24.6599 11.7636 24.8789 12.2354 25.3042 12.3914C25.73 12.5473 26.2018 12.3283 26.3578 11.9031Z" fill="#FC9C03"/>
<path fill-rule="evenodd" clip-rule="evenodd" d="M18.7038 32.3346H20.9792C21.4324 32.3346 21.8003 31.9668 21.8003 31.5136C21.8003 31.0604 21.4324 30.6926 20.9792 30.6926H18.7038C18.2506 30.6926 17.8828 31.0605 17.8828 31.5136C17.8828 31.9668 18.2506 32.3346 18.7038 32.3346Z" fill="#FC9C03"/>
</g>
<defs>
<clipPath id="clip0_6032_50036">
<rect width="52" height="52" fill="white"/>
</clipPath>
</defs>
</svg>
