<svg width="52" height="52" viewBox="0 0 52 52" fill="none" xmlns="http://www.w3.org/2000/svg">
<path d="M21.8379 24.104C20.5744 24.104 19.4031 23.4711 18.7048 22.4108C18.4889 22.0828 18.5797 21.642 18.9077 21.426C19.2356 21.21 19.6764 21.3009 19.8924 21.6289C20.3267 22.2884 21.0541 22.6822 21.8378 22.6822C22.6216 22.6822 23.346 22.2884 23.7803 21.6289C23.9963 21.3009 24.4372 21.21 24.7651 21.426C25.093 21.642 25.1838 22.0828 24.9679 22.4108C24.2696 23.471 23.0995 24.104 21.8378 24.104H21.8379ZM18.2737 16.1555C17.8811 16.1555 17.5628 16.4738 17.5628 16.8665V17.2666C17.5628 17.6593 17.8811 17.9776 18.2737 17.9776C18.6663 17.9776 18.9846 17.6593 18.9846 17.2666V16.8665C18.9846 16.4738 18.6663 16.1555 18.2737 16.1555ZM25.4021 17.9776C25.7947 17.9776 26.113 17.6593 26.113 17.2666V16.8665C26.113 16.4738 25.7947 16.1555 25.4021 16.1555C25.0094 16.1555 24.6911 16.4738 24.6911 16.8665V17.2666C24.6911 17.6593 25.0094 17.9776 25.4021 17.9776ZM19.3159 19.9843H17.2316C16.1601 19.9843 15.2885 19.1139 15.2885 18.044V15.5077C15.2885 14.7585 15.898 14.149 16.6472 14.149H19.8976C20.6468 14.149 21.2563 14.7585 21.2563 15.5077V15.931H22.4168V15.5077C22.4168 14.7585 23.0263 14.149 23.7755 14.149H27.0259C27.7751 14.149 28.3846 14.7585 28.3846 15.5077V18.044C28.3846 19.1139 27.5143 19.9843 26.4443 19.9843H24.3599C23.2885 19.9843 22.4168 19.1139 22.4168 18.044V17.3529H21.2563V18.044C21.2563 19.1139 20.3858 19.9843 19.3159 19.9843ZM23.8386 18.044C23.8386 18.325 24.0773 18.5624 24.3598 18.5624H26.4442C26.73 18.5624 26.9626 18.3298 26.9626 18.044V15.5707H23.8386V18.044ZM17.2315 18.5624H19.3158C19.6016 18.5624 19.8342 18.3298 19.8342 18.044V15.5707H16.7101V18.044C16.7101 18.325 16.9489 18.5624 17.2315 18.5624ZM46.2676 10.1282L43.8799 24.5068C45.4892 25.1892 46.4749 26.9098 46.1783 28.6919L43.6909 43.6709C43.1813 46.7387 42.0135 48.5005 40.2199 48.9076C39.9608 48.9665 39.6973 48.9941 39.432 48.9941C37.1004 48.9943 34.5967 46.872 33.0541 45.2252V49.9688C33.0541 50.3614 32.7358 50.6797 32.3432 50.6797H10.3739C8.07896 50.6797 6.16796 49.009 5.78852 46.8195C5.74424 46.7269 5.71875 46.6235 5.71875 46.514V35.0817C5.71875 32.9255 7.0477 31.0549 9.56198 29.6718C11.5977 28.5521 14.3535 27.7707 17.5513 27.4016V25.9406C15.4874 24.7692 13.9467 22.7811 13.3716 20.4176C11.564 20.189 10.161 18.6417 10.161 16.7715C10.161 15.8516 10.5016 15.0102 11.0625 14.3651L10.6207 10.5954C10.3661 8.42877 11.0775 6.27798 12.6237 4.53964C14.4166 2.52383 17.1024 1.32031 19.8082 1.32031H23.8646C26.8379 1.32031 28.6402 2.46705 29.3659 4.82412C31.5685 6.46039 33.6355 9.23701 33.0441 12.311L32.643 14.4003C33.1861 15.0407 33.5147 15.8683 33.5147 16.7715C33.5147 18.6418 32.1106 20.1891 30.3014 20.4176C29.7263 22.7816 28.1856 24.7702 26.1215 25.9414V27.4182C30.5465 27.8788 35.3534 28.5802 37.0898 33.3435L38.4873 27.166C38.7133 26.167 39.3184 25.3147 40.1909 24.7662C40.889 24.3275 41.6883 24.1269 42.493 24.1788L44.8649 9.89534C44.9292 9.50788 45.2966 9.24635 45.6827 9.31044C46.07 9.37473 46.332 9.74086 46.2676 10.1282ZM23.0198 30.996L25.3008 32.5581L26.7209 28.9123C26.3776 28.8742 26.0315 28.838 25.6834 28.8023L23.0198 30.9959V30.996ZM32.0929 16.7715C32.0929 15.7781 31.4451 14.9335 30.5496 14.6355V18.3578C30.5496 18.5459 30.5414 18.732 30.5298 18.9171C31.4357 18.6246 32.093 17.7735 32.093 16.7715H32.0929ZM13.1434 18.9168C13.1316 18.7318 13.1236 18.5458 13.1236 18.3578V14.6358C12.2295 14.9342 11.583 15.7785 11.583 16.7715C11.583 17.7732 12.2391 18.624 13.1434 18.9168ZM14.8685 8.89383C16.6461 7.69874 19.1833 8.73285 21.6367 9.73273C23.3337 10.4244 25.2573 11.2085 26.0832 10.7317C27.0703 10.1586 28.1077 10.0974 29.0023 10.5607C29.8504 10.9997 30.3343 12.1932 30.4918 13.1573C30.8032 13.2134 31.101 13.3084 31.3801 13.4378L31.648 12.0426C32.1301 9.53641 30.2549 7.19306 28.3394 5.83568C28.2039 5.7397 28.1063 5.59934 28.0635 5.43898C27.7283 4.18336 26.9482 2.74209 23.8647 2.74209H19.8083C17.5021 2.74209 15.2135 3.76726 13.6862 5.48448C12.4136 6.91529 11.8264 8.67151 12.033 10.4297L12.3809 13.3985C12.6214 13.2945 12.875 13.2158 13.1386 13.165C13.2308 11.0156 13.7981 9.6133 14.8686 8.89373L14.8685 8.89383ZM21.8379 25.6504C25.8575 25.6504 29.1276 22.379 29.1276 18.3578V13.809C29.1276 13.0548 28.7198 12.0156 28.3486 11.8234C27.8877 11.5848 27.3651 11.6315 26.7954 11.9623C25.3645 12.7878 23.2932 11.9432 21.1 11.0494C19.6208 10.4464 17.9961 9.78433 16.7833 9.78433C16.3477 9.78433 15.9653 9.86964 15.6617 10.0738C14.9209 10.5717 14.5453 11.8285 14.5453 13.809V18.3578C14.5453 22.379 17.8168 25.6504 21.8379 25.6504ZM18.9732 26.5862V27.7703L21.8378 30.1275L24.6998 27.7705V26.5869C23.8028 26.9 22.8404 27.0723 21.8379 27.0723C20.8355 27.0723 19.8711 26.8997 18.9732 26.5862ZM16.954 28.9098L18.375 32.5582L20.6558 30.9963L17.969 28.7855C17.6253 28.8224 17.2861 28.8631 16.954 28.9097V28.9098ZM20.5366 49.2579C21.7781 49.2579 22.7881 48.2479 22.7881 47.0065C22.7881 45.7651 21.7781 44.7549 20.5366 44.7549H18.9501V49.2579H20.5366ZM13.7738 43.3331H20.5366C22.5621 43.3331 24.2099 44.9809 24.2099 47.0065C24.2099 47.8544 23.9204 48.6355 23.4359 49.2579H26.951V39.9989H13.7738V43.3331ZM44.2459 31.6484L39.195 30.4817L37.9301 36.0731L38.335 37.4058C38.4492 37.7815 38.2372 38.1786 37.8616 38.2927C37.7926 38.3136 37.7231 38.3236 37.6546 38.3236C37.3498 38.3236 37.0679 38.1259 36.9747 37.8191L35.8202 34.0198C34.6688 30.5874 31.6772 29.5943 28.1757 29.0945L26.3005 33.909C26.2218 34.1111 26.055 34.2663 25.8477 34.3303C25.7791 34.3515 25.7084 34.3619 25.6381 34.3619C25.4963 34.3619 25.3561 34.3196 25.2364 34.2375L21.8379 31.9101L18.4394 34.2375C18.3197 34.3195 18.1794 34.3619 18.0377 34.3619C17.9674 34.3619 17.8966 34.3515 17.8279 34.3303C17.6208 34.2663 17.454 34.1111 17.3753 33.909L15.5211 29.1482C13.4449 29.5473 11.6501 30.1461 10.2472 30.9178C8.1858 32.0517 7.14063 33.4527 7.14063 35.0818V46.0218C7.14063 47.8062 8.59104 49.2579 10.3739 49.2579H17.5282V44.7549H13.0628C12.6702 44.7549 12.3519 44.4366 12.3519 44.044V39.2879C12.3519 38.8953 12.6702 38.577 13.0628 38.577H27.6619C28.0546 38.577 28.3729 38.8953 28.3729 39.2879V49.2579H31.6322V39.2879C31.6322 38.8953 31.9505 38.577 32.3432 38.577C32.7358 38.577 33.0541 38.8953 33.0541 39.2879V43.0392C34.4333 44.8993 37.7467 48.0112 39.9052 47.5212C41.0807 47.2544 41.8825 45.8806 42.2883 43.4381L44.2459 31.6484ZM42.9192 25.6838L42.7934 25.654C42.1611 25.5085 41.5041 25.6206 40.9476 25.9702C40.3974 26.3161 40.0161 26.8523 39.8741 27.48L39.5088 29.095L44.4794 30.2431L44.7757 28.4589C44.9867 27.1913 44.1712 25.9725 42.9193 25.6839L42.9192 25.6838Z" fill="#FC9C03"/>
</svg>
