<svg width="52" height="52" viewBox="0 0 52 52" fill="none" xmlns="http://www.w3.org/2000/svg">
<path d="M18.4609 13.2372H32.0833V14.8622H18.4609V13.2372Z" fill="#FC9C03"/>
<path d="M14.5625 18.6313H35.9759V20.2563H14.5625V18.6313Z" fill="#FC9C03"/>
<path d="M14.5625 24.0249H35.9759V25.6499H14.5625V24.0249Z" fill="#FC9C03"/>
<path d="M16.8322 37.145C16.7892 36.1498 17.0663 35.1671 17.6228 34.341C17.7341 34.2217 17.8694 34.1274 18.0198 34.0641C18.1702 34.0008 18.3323 33.97 18.4954 33.9738H18.5011C19.2324 33.9738 19.5614 35.9059 19.7767 37.1864C20.0554 38.8398 20.3187 40.4007 21.6089 40.4023C23.3152 40.4023 23.6402 38.3402 23.862 36.976C23.9148 36.6461 23.9871 36.1927 24.0042 36.1302C24.187 35.8978 25.1189 35.9043 25.7665 36.0627L26.1614 34.4865C25.7551 34.3841 23.6678 33.934 22.7285 35.1235C22.4481 35.6103 22.2867 36.1565 22.2573 36.7176C22.2009 37.3919 22.0291 38.0514 21.7495 38.6676C21.5838 38.094 21.4589 37.5095 21.3757 36.9183C21.0507 34.9797 20.6112 32.3171 18.4702 32.3504C18.0919 32.3506 17.7175 32.4275 17.3698 32.5765C17.022 32.7255 16.7082 32.9435 16.4471 33.2173C15.1707 34.5482 15.1967 36.924 15.2048 37.1905L16.8322 37.145Z" fill="#FC9C03"/>
<path d="M44.8764 29.5458V2.66992C44.8764 2.45443 44.7908 2.24777 44.6385 2.0954C44.4861 1.94302 44.2794 1.85742 44.0639 1.85742H14.1144V1.8688C13.8999 1.8669 13.6935 1.94984 13.5399 2.09955L5.89431 9.74517C5.81985 9.82096 5.76113 9.91074 5.72153 10.0093C5.68192 10.1079 5.66222 10.2134 5.66356 10.3196H5.65625V48.4039C5.65625 48.6194 5.74185 48.8261 5.89423 48.9784C6.0466 49.1308 6.25326 49.2164 6.46875 49.2164H34.7186V50.644C34.7184 50.7995 34.7629 50.9517 34.8467 51.0827C34.9305 51.2136 35.0501 51.3178 35.1913 51.3828C35.3325 51.4478 35.4895 51.4709 35.6434 51.4494C35.7974 51.4279 35.942 51.3627 36.06 51.2615L40.0356 47.8563L44.0111 51.259C44.1292 51.36 44.2737 51.425 44.4275 51.4464C44.5813 51.4677 44.7381 51.4446 44.8792 51.3796C45.0202 51.3146 45.1397 51.2105 45.2235 51.0797C45.3072 50.9489 45.3518 50.7969 45.3517 50.6415V38.8457C46.452 37.5178 47.0136 35.8253 46.9256 34.1031C46.8376 32.381 46.1063 30.7546 44.8764 29.5458ZM45.3095 34.4533C45.3095 35.4964 45.0002 36.516 44.4207 37.3833C43.8412 38.2506 43.0175 38.9266 42.0538 39.3258C41.0901 39.725 40.0297 39.8294 39.0067 39.6259C37.9836 39.4224 37.0439 38.9201 36.3063 38.1825C35.5688 37.445 35.0665 36.5052 34.863 35.4822C34.6595 34.4591 34.7639 33.3987 35.1631 32.435C35.5622 31.4714 36.2382 30.6477 37.1055 30.0682C37.9728 29.4887 38.9925 29.1794 40.0356 29.1794C41.4331 29.1813 42.773 29.7371 43.7615 30.725C44.7501 31.713 45.3067 33.0525 45.3095 34.4501V34.4533ZM43.2514 28.3563C42.2611 27.8306 41.1568 27.5558 40.0356 27.556C39.9844 27.556 39.934 27.5625 39.8828 27.5641V11.2589C39.8828 11.1468 39.8596 11.036 39.8147 10.9334C39.7699 10.8308 39.7042 10.7385 39.622 10.6625C39.5394 10.5867 39.4421 10.5286 39.3362 10.4919C39.2303 10.4551 39.1179 10.4405 39.0061 10.4488C38.9549 10.4529 38.9054 10.4594 38.8038 10.474C38.1099 10.4733 37.4446 10.1974 36.954 9.70675C36.4633 9.2161 36.1874 8.55081 36.1867 7.85692C36.1867 7.64143 36.1011 7.43477 35.9488 7.2824C35.7964 7.13002 35.5897 7.04442 35.3742 7.04442H14.9269V3.48242H43.2514V28.3563ZM14.1144 11.1313C14.3299 11.1313 14.5365 11.0457 14.6889 10.8933C14.8413 10.7409 14.9269 10.5343 14.9269 10.3188V8.66942H34.6397C34.8116 9.54275 35.2532 10.3401 35.9023 10.9492C36.5514 11.5582 37.3753 11.9481 38.2578 12.064V27.7957C37.164 28.0884 36.1593 28.6466 35.3328 29.4207H14.5596V31.0457H34.0458C33.3501 32.2596 33.0418 33.657 33.162 35.0509C33.2822 36.4449 33.8253 37.7688 34.7186 38.8457V42.4044H15.6248C15.4615 41.5763 15.0556 40.8154 14.4589 40.2185C13.8621 39.6216 13.1013 39.2156 12.2732 39.052V11.1313H14.1144ZM13.3019 4.6313V9.5063H8.42687L13.3019 4.6313ZM7.28125 47.5914V11.1313H10.6507V39.7874C10.6507 40.0028 10.7363 40.2095 10.8887 40.3619C11.041 40.5143 11.2477 40.5999 11.4632 40.5999C12.157 40.6007 12.8222 40.8767 13.3128 41.3673C13.8034 41.8579 14.0794 42.5231 14.0802 43.2169C14.0802 43.4324 14.1659 43.6391 14.3182 43.7914C14.4706 43.9438 14.6773 44.0294 14.8927 44.0294H34.7177V47.5914H7.28125ZM40.5645 46.172C40.4173 46.0461 40.23 45.9769 40.0364 45.9769C39.8427 45.9769 39.6554 46.0461 39.5082 46.172L36.3444 48.8792V40.2716C37.4462 40.9775 38.7274 41.3526 40.036 41.3526C41.3445 41.3526 42.6257 40.9775 43.7276 40.2716V48.8792L40.5645 46.172Z" fill="#FC9C03"/>
</svg>
